<svg width="960" height="720" viewBox="0 0 960 720" fill="none" xmlns="http://www.w3.org/2000/svg">
  <rect width="960" height="720" rx="36" fill="#07111F"/>
  <rect x="42" y="42" width="876" height="636" rx="30" fill="url(#bg)" stroke="#94A3B8" stroke-opacity="0.18"/>
  <circle cx="130" cy="110" r="6" fill="#F87171"/>
  <circle cx="156" cy="110" r="6" fill="#FBBF24"/>
  <circle cx="182" cy="110" r="6" fill="#34D399"/>

  <rect x="108" y="166" width="744" height="420" rx="28" fill="#0A1628"/>
  <rect x="138" y="194" width="150" height="16" rx="8" fill="#1E3858"/>
  <rect x="138" y="236" width="300" height="282" rx="24" fill="url(#screen)"/>
  <circle cx="286" cy="378" r="62" fill="rgba(255,255,255,0.08)"/>
  <path d="M272 344L334 378L272 412V344Z" fill="#F8FAFC"/>

  <rect x="472" y="236" width="254" height="118" rx="22" fill="#10213A"/>
  <rect x="498" y="264" width="104" height="14" rx="7" fill="#7DD3FC"/>
  <rect x="498" y="292" width="194" height="14" rx="7" fill="#1E3858"/>
  <rect x="498" y="320" width="172" height="14" rx="7" fill="#1E3858"/>
  <circle cx="660" cy="292" r="26" stroke="#34D399" stroke-width="12"/>

  <rect x="472" y="374" width="254" height="144" rx="22" fill="#10213A"/>
  <rect x="498" y="404" width="124" height="14" rx="7" fill="#FBBF24"/>
  <rect x="498" y="438" width="70" height="48" rx="18" fill="#15365A"/>
  <rect x="580" y="424" width="112" height="14" rx="7" fill="#1E3858"/>
  <rect x="580" y="452" width="92" height="14" rx="7" fill="#1E3858"/>
  <rect x="580" y="480" width="78" height="14" rx="7" fill="#1E3858"/>

  <rect x="176" y="544" width="164" height="82" rx="20" fill="#10213A"/>
  <rect x="210" y="570" width="96" height="14" rx="7" fill="#34D399"/>
  <rect x="210" y="598" width="68" height="10" rx="5" fill="#1E3858"/>

  <rect x="384" y="544" width="190" height="82" rx="20" fill="#10213A"/>
  <rect x="414" y="570" width="126" height="14" rx="7" fill="#7DD3FC"/>
  <rect x="414" y="598" width="98" height="10" rx="5" fill="#1E3858"/>

  <rect x="610" y="544" width="174" height="82" rx="20" fill="#10213A"/>
  <rect x="642" y="568" width="58" height="18" rx="9" fill="#F59E0B"/>
  <rect x="642" y="598" width="106" height="10" rx="5" fill="#1E3858"/>

  <defs>
    <linearGradient id="bg" x1="64" y1="50" x2="888" y2="662" gradientUnits="userSpaceOnUse">
      <stop stop-color="#0B1627"/>
      <stop offset="1" stop-color="#07121E"/>
    </linearGradient>
    <linearGradient id="screen" x1="138" y1="236" x2="438" y2="518" gradientUnits="userSpaceOnUse">
      <stop stop-color="#0E7490"/>
      <stop offset="1" stop-color="#0F766E"/>
    </linearGradient>
  </defs>
</svg>
